# xmcd CD database file
#
# Track frame offsets:
#	150
#	5099
#	25992
#	46985
#	63648
#	85462
#	117115
#	140059
#	164130
#	182754
#	203583
#	217812
#	233747
#	250187
#	271819
#	292673
#
# Disc length: 4084 seconds
#
# Revision: 0
# Processed by: cddbd v1.5.2PL0 Copyright (c) Steve Scherf et al.
# Submitted via: CDex 1.51
#
DISCID=e40ff210
DTITLE=Ferdy Doernberg - ..... till I run out of road
DYEAR=2006
DGENRE=Blues
TTITLE0=Squareneck /Broadcastguard
TTITLE1=Lifes to short for long goodbyes
TTITLE2=Sarasota sunset
TTITLE3=till I run out of road
TTITLE4=deincarnation
TTITLE5=a wellpayed gig
TTITLE6=grace of fire
TTITLE7=driftwood
TTITLE8=if today wa the beginning of the end of my life
TTITLE9=the arth
TTITLE10=me -  missing you
TTITLE11=Theme from "Storytellers rain"
TTITLE12=late at night
TTITLE13=Marilyn  Hayworth and Rita Monroe
TTITLE14=when we ruled the world
TTITLE15=One spanish senorita ... followed by a weird slide on a greek bouzouki
EXTD=YEAR: 2006
EXTT0=
EXTT1=
EXTT2=
EXTT3=
EXTT4=
EXTT5=
EXTT6=
EXTT7=
EXTT8=
EXTT9=
EXTT10=
EXTT11=
EXTT12=
EXTT13=
EXTT14=
EXTT15=
PLAYORDER=
